<svg width="32" height="38" viewBox="0 0 32 38" fill="none" xmlns="http://www.w3.org/2000/svg">
<path d="M31.3293 29.6135C30.7548 30.9412 30.0747 32.1632 29.2868 33.2868C28.2128 34.8184 27.3334 35.8787 26.6557 36.4674C25.6052 37.4338 24.4796 37.9287 23.2742 37.9569C22.4089 37.9569 21.3654 37.7106 20.1507 37.211C18.932 36.7137 17.812 36.4674 16.7879 36.4674C15.7139 36.4674 14.562 36.7137 13.33 37.211C12.096 37.7106 11.102 37.9709 10.342 37.9967C9.18611 38.046 8.034 37.537 6.88401 36.4674C6.15002 35.8271 5.23195 34.7293 4.13214 33.1742C2.95213 31.5135 1.982 29.5877 1.22198 27.3922C0.408032 25.0208 0 22.7245 0 20.5013C0 17.9547 0.550139 15.7583 1.65206 13.9177C2.51807 12.4392 3.67017 11.273 5.11212 10.4168C6.55407 9.5607 8.11209 9.12442 9.78995 9.09651C10.708 9.09651 11.9119 9.38056 13.4081 9.93882C14.9 10.4989 15.8579 10.783 16.2779 10.783C16.5919 10.783 17.656 10.4509 19.4601 9.7887C21.1661 9.17462 22.6059 8.92035 23.7854 9.02051C26.9817 9.27853 29.383 10.5388 30.9799 12.8094C28.1214 14.5418 26.7073 16.9684 26.7355 20.0812C26.7612 22.5059 27.6406 24.5236 29.3689 26.1256C30.1521 26.8692 31.0268 27.4439 32 27.852C31.789 28.4642 31.5662 29.0506 31.3293 29.6135ZM23.9988 0.760216C23.9988 2.66065 23.3047 4.43508 21.9212 6.07747C20.2515 8.02996 18.232 9.1582 16.042 8.98016C16.0141 8.75217 15.9979 8.51222 15.9979 8.26006C15.9979 6.43565 16.7919 4.48316 18.202 2.88674C18.9059 2.07845 19.8013 1.40636 20.887 0.870224C21.9704 0.342087 22.9952 0.0500159 23.959 0C23.9871 0.254058 23.9988 0.508157 23.9988 0.760216Z" fill="white"/>
</svg>
