<svg width="29" height="29" viewBox="0 0 29 29" fill="none" xmlns="http://www.w3.org/2000/svg">
<path d="M3.625 11.0807C3.625 10.4141 3.95718 9.79123 4.51081 9.41983L13.3858 3.46618C14.0598 3.01405 14.9402 3.01405 15.6142 3.46618L24.4892 9.41983C25.0428 9.79123 25.375 10.4141 25.375 11.0807V21.4781C25.375 22.0309 25.1204 22.5611 24.6672 22.952C24.214 23.3429 23.5993 23.5625 22.9583 23.5625H21.8167C20.7121 23.5625 19.8167 22.6671 19.8167 21.5625V16.8081C19.8167 15.7036 18.9212 14.8081 17.8167 14.8081H11.6667C10.5621 14.8081 9.66667 15.7036 9.66667 16.8081V21.5625C9.66667 22.6671 8.77124 23.5625 7.66667 23.5625H6.04167C5.40073 23.5625 4.78604 23.3429 4.33283 22.952C3.87961 22.5611 3.625 22.0309 3.625 21.4781V11.0807Z" stroke="#FFFFFF" stroke-width="2" stroke-linecap="round" stroke-linejoin="round"/>
</svg>
