<svg width="30" height="31" viewBox="0 0 30 31" fill="none" xmlns="http://www.w3.org/2000/svg">
<path fill-rule="evenodd" clip-rule="evenodd" d="M21.1723 8.45841C19.5923 6.93209 17.4838 6.1006 15.3022 6.13477C11.3101 6.13477 7.9196 8.86274 6.7107 12.5361C6.06972 14.4611 6.06972 16.5456 6.7107 18.4706H6.71631C7.93082 22.1383 11.3157 24.8663 15.3078 24.8663C17.3685 24.8663 19.1377 24.3324 20.5088 23.3894V23.3856C22.1226 22.3035 23.2246 20.6006 23.5676 18.6756H15.3022V12.7071H29.7357C29.9157 13.7436 30 14.8029 30 15.8565C30 20.5707 28.3367 24.5564 25.4425 27.2559L25.4456 27.2583C22.9097 29.6275 19.4293 31 15.3022 31C9.51642 31 4.22545 27.6968 1.62776 22.4629C-0.542592 18.0833 -0.542586 12.9235 1.62777 8.54387C4.22547 3.30429 9.51642 0.00104449 15.3022 0.00104449C19.1031 -0.0445171 22.7748 1.40206 25.5411 4.03324L21.1723 8.45841Z" fill="white"/>
</svg>
