<svg width="25" height="29" viewBox="0 0 25 29" fill="none" xmlns="http://www.w3.org/2000/svg">
<path d="M23.9092 22.5998C23.4708 23.613 22.9518 24.5456 22.3505 25.4031C21.5308 26.572 20.8597 27.3811 20.3425 27.8304C19.5408 28.5679 18.6818 28.9456 17.7619 28.9671C17.1015 28.9671 16.3052 28.7791 15.3781 28.3978C14.4481 28.0183 13.5934 27.8304 12.8118 27.8304C11.9922 27.8304 11.1131 28.0183 10.1729 28.3978C9.23118 28.7791 8.47256 28.9778 7.89255 28.9975C7.01045 29.0351 6.13121 28.6467 5.25359 27.8304C4.69344 27.3417 3.9928 26.5039 3.15348 25.3171C2.25294 24.0498 1.51258 22.5801 0.932567 20.9046C0.311393 19.0948 0 17.3424 0 15.6457C0 13.7023 0.419843 12.026 1.26078 10.6214C1.92169 9.4931 2.80092 8.60308 3.90135 7.9497C5.00179 7.29633 6.19081 6.96337 7.47127 6.94207C8.17191 6.94207 9.0907 7.15885 10.2325 7.58488C11.371 8.01235 12.1021 8.22913 12.4226 8.22913C12.6622 8.22913 13.4744 7.97566 14.8511 7.47032C16.153 7.00168 17.2519 6.80764 18.152 6.88407C20.5913 7.08098 22.4238 8.04278 23.6426 9.77557C21.461 11.0977 20.3819 12.9495 20.4034 15.3251C20.4231 17.1755 21.0942 18.7154 22.4131 19.938C23.0108 20.5054 23.6784 20.944 24.4211 21.2555C24.26 21.7227 24.09 22.1702 23.9092 22.5998ZM18.3149 0.580165C18.3149 2.0305 17.7852 3.38467 16.7293 4.63807C15.4551 6.12813 13.9139 6.98915 12.2426 6.85328C12.2213 6.67929 12.2089 6.49616 12.2089 6.30373C12.2089 4.91142 12.8149 3.42136 13.891 2.20304C14.4282 1.58618 15.1115 1.07328 15.9401 0.664118C16.7669 0.261067 17.5489 0.0381701 18.2845 0C18.3059 0.193887 18.3149 0.387804 18.3149 0.580165Z" fill="white"/>
</svg>
