<svg width="27" height="22" viewBox="0 0 27 22" fill="none" xmlns="http://www.w3.org/2000/svg">
<path d="M23.4509 1.34644C23.4509 2.70598 23.4509 5.42506 20.0521 5.42506L7.042 5.42506C5.93743 5.42506 5.042 6.3205 5.042 7.42506V9.16381M7.08132 4.74529C7.08132 1.48239 9.34723 1.34644 10.4802 1.34644L23.4902 1.34644C24.5948 1.34644 25.4902 2.24186 25.4902 3.34643V18.38C25.4902 19.4846 24.5948 20.38 23.4902 20.38L7.042 20.38C5.93743 20.38 5.042 19.4846 5.042 18.38V15.6216" stroke="#3D5781" stroke-width="2"/>
<path d="M2.9043 9.14417H9.78064C10.3329 9.14417 10.7806 9.59188 10.7806 10.1442V14.3014C10.7806 14.8537 10.3329 15.3014 9.78064 15.3014H2.9043C2.35201 15.3014 1.9043 14.8537 1.9043 14.3014V10.1442C1.9043 9.59188 2.35201 9.14417 2.9043 9.14417Z" stroke="#3D5781" stroke-width="2"/>
</svg>
