<svg width="29" height="29" viewBox="0 0 29 29" fill="none" xmlns="http://www.w3.org/2000/svg">
<path fill-rule="evenodd" clip-rule="evenodd" d="M19.8063 7.9127C18.3283 6.48486 16.3558 5.70701 14.315 5.73898C10.5804 5.73898 7.40866 8.29095 6.27776 11.7273C5.67812 13.5281 5.67812 15.4781 6.27775 17.2789H6.283C7.41915 20.71 10.5856 23.262 14.3202 23.262C16.248 23.262 17.903 22.7626 19.1857 21.8804V21.8768C20.6953 20.8645 21.7263 19.2715 22.0471 17.4708H14.315V11.8873H27.8173C27.9856 12.8569 28.0645 13.8479 28.0645 14.8335C28.0645 19.2436 26.5085 22.9721 23.8011 25.4974L23.8039 25.4997C21.4317 27.716 18.1758 29 14.315 29C8.90246 29 3.95284 25.9099 1.52274 21.0137C-0.507586 16.9166 -0.507581 12.0897 1.52276 7.99265C3.95286 3.09111 8.90246 0.000977105 14.315 0.000977105C17.8707 -0.041645 21.3054 1.31161 23.8933 3.77303L19.8063 7.9127Z" fill="white"/>
</svg>
